<?xml version="1.0" encoding="UTF-8" standalone="no"?>
<!-- Created with Inkscape (http://www.inkscape.org/) -->
<svg version="1.1" id="svg1" width="1080" height="2400" viewBox="10 744 1026 912" sodipodi:docname="slippery.svg" inkscape:version="1.4.4 (dcaf3e7, 2026-05-05)" xmlns:inkscape="http://www.inkscape.org/namespaces/inkscape" xmlns:sodipodi="http://sodipodi.sourceforge.net/DTD/sodipodi-0.dtd" xmlns="http://www.w3.org/2000/svg" xmlns:svg="http://www.w3.org/2000/svg">
  <defs id="defs1" />
  <sodipodi:namedview id="namedview1" pagecolor="#ffffff" bordercolor="#000000" borderopacity="0.25" inkscape:showpageshadow="2" inkscape:pageopacity="0.0" inkscape:pagecheckerboard="0" inkscape:deskcolor="#d1d1d1" showgrid="false" inkscape:zoom="0.64416667" inkscape:cx="633.37646" inkscape:cy="1425.8732" inkscape:window-width="1920" inkscape:window-height="991" inkscape:window-x="-9" inkscape:window-y="-9" inkscape:window-maximized="1" inkscape:current-layer="g43" />
  <g inkscape:groupmode="layer" inkscape:label="Image" id="g1">
    <g id="g43" transform="translate(45.805068,11.996773)">
      <g id="g183">
        <g id="g182">
          <g id="g181">
            <g id="g180">
              <g id="g179">
                <g id="g178">
                  <g id="g177">
                    <path id="path44" style="fill:#ce0605" d="m 475.97972,748.43589 v 0.002 c -3.87474,0.0383 -6.23042,0.54492 -9.66992,1.8418 -3.10591,1.1711 -7.68259,3.92189 -10.16993,6.11133 -2.48733,2.18944 -6.97352,7.91208 -9.9707,12.7168 -2.99717,4.80472 -6.78195,11.20937 -8.41016,14.23437 -1.6282,3.025 -4.16198,7.4039 -5.63086,9.73047 -1.46889,2.32657 -2.67187,4.47376 -2.67187,4.77148 0,0.29772 -1.06353,2.21883 -2.36328,4.26954 -1.29976,2.05071 -5.65454,9.57851 -9.67774,16.72851 -4.02319,7.15 -10.38466,18.10356 -14.13671,24.33984 -3.75205,6.23627 -6.82227,11.54424 -6.82227,11.79688 0,0.25265 -1.575,2.92238 -3.5,5.93164 -1.925,3.00926 -3.5,5.65158 -3.5,5.87109 0,0.2195 -2.7,4.97092 -6,10.56055 -3.3,5.58963 -6,10.39496 -6,10.67774 0,0.28278 -0.83604,1.70806 -1.85742,3.16796 -1.02137,1.4599 -2.98919,4.6793 -4.375,7.1543 -1.38581,2.475 -4.0847,7.2 -5.9961,10.5 -1.9114,3.3 -9.43951,16.35 -16.73046,29 -7.29095,12.65 -14.40837,25.025 -15.81641,27.5 -1.40804,2.475 -4.51015,7.80104 -6.89258,11.83399 -2.38242,4.03294 -4.33203,7.48393 -4.33203,7.66992 0,0.18599 -2.17416,3.86191 -4.83203,8.16797 -2.65787,4.30605 -6.19286,10.30303 -7.85547,13.32803 -1.66261,3.025 -5.38749,9.55 -8.27734,14.5001 -2.88984,4.95 -6.03133,10.35 -6.98047,12 -0.94914,1.65 -2.86791,5.025 -4.26563,7.5 -1.39772,2.475 -4.17319,7.3125 -6.16601,10.75 -1.99281,3.4375 -5.127,8.8375 -6.96485,12 -1.83786,3.1625 -6.60594,11.375 -10.59765,18.25 -3.99172,6.875 -8.04052,13.85 -8.9961,15.5 -0.95559,1.65 -3.22524,5.7 -5.04297,9 -1.81774,3.3 -4.14001,7.1944 -5.16211,8.6543 -1.02211,1.4599 -1.85937,2.9119 -1.85937,3.2246 0,0.3128 -1.97699,3.8433 -4.39453,7.8457 -2.41753,4.0023 -8.3214,14.0254 -13.11914,22.2754 -4.79774,8.25 -9.62205,16.575 -10.72071,18.5 -1.09866,1.925 -4.19479,7.2269 -6.88085,11.7813 -2.68607,4.5544 -4.88477,8.4877 -4.88477,8.7402 0,0.2525 -1.94822,3.5006 -4.33008,7.2188 -2.38186,3.7181 -5.53186,8.8972 -7,11.5097 -1.46814,2.6125 -3.86706,6.8875 -5.33008,9.5 -1.46301,2.6125 -3.15051,5.65 -3.75,6.75 -0.59948,1.1 -1.33697,2.225 -1.64062,2.5 -0.30366,0.275 -1.33502,2.075 -2.29102,4 -0.95599,1.925 -2.85248,5.3 -4.21484,7.5 -1.36236,2.2 -2.93981,4.9 -3.50391,6 -0.56411,1.1 -1.57325,2.9 -2.24414,4 -0.67089,1.1 -2.53642,4.25 -4.14453,7 -1.60811,2.75 -5.47196,9.275 -8.58594,14.5 -3.11399,5.225 -6.80436,11.525 -8.20117,14 -1.3968,2.475 -6.46992,11.25 -11.27344,19.5 -4.80352,8.25 -10.30848,17.7 -12.23437,21 -1.92589,3.3 -4.63568,8.025 -6.02149,10.5 -1.38581,2.475 -3.35558,5.6944 -4.37695,7.1543 -1.02138,1.4599 -1.85742,2.9448 -1.85742,3.2988 0,0.354 -1.48243,2.9847 -3.29492,5.8457 -1.81249,2.8611 -4.08692,6.7762 -5.05469,8.7012 -0.96777,1.925 -3.19784,6.0303 -4.95508,9.1211 -1.757238,3.0908 -3.675748,6.2408 -4.263668,7 -0.58793,0.7592 -2.38793,3.9658 -4,7.127 -1.61208,3.1612 -3.26914,5.75 -3.68164,5.75 -0.4125,0 -0.75,0.4091 -0.75,0.9062 0,0.4972 -1.575,3.6472 -3.5,7 -1.925,3.3529 -5.13024,8.9082 -7.12305,12.3457 -1.99282,3.4375 -4.75203,8.275 -6.13281,10.75 -1.38078,2.475 -2.862,4.95 -3.29102,5.5 -0.42903,0.55 -2.3948,3.8125 -4.36718,7.25 -1.97238,3.4375 -5.16094,8.95 -7.08594,12.25 -1.925,3.3 -5.14018,8.8125 -7.14648,12.25 -2.00631,3.4375 -6.33322,10.975 -9.615239,16.75 -3.282024,5.775 -7.101054,12.525 -8.486328,15 -1.385273,2.475 -2.86237,4.95 -3.28125,5.5 -0.418879,0.55 -2.001774,3.25 -3.517579,6 -1.515806,2.75 -3.0243,5.225 -3.353515,5.5 -0.329214,0.275 -1.089969,1.4 -1.689453,2.5 -0.599484,1.1 -2.224646,4.025 -3.611328,6.5 -1.386682,2.475 -3.911538,6.75 -5.6113287,9.5 -1.699783,2.75 -3.872891,6.575 -4.830078,8.5 -0.957187,1.925 -2.716641,4.85 -3.90820298,6.5 -1.191563,1.65 -3.40649002,5.5875 -4.92382802,8.75 -1.517338,3.1625 -3.044621,5.7556 -3.392578,5.7656 -0.347958,0.01 -1.752827,2.3711 -3.1230473,5.25 -1.37022,2.879 -3.445217,6.5844 -4.611328,8.2344 -1.166111,1.65 -2.746097,5.1954 -3.509766,7.877 -0.76367,2.6816 -1.951179,5.0907 -2.638671,5.3554 -0.86948,0.3348 -1.25,3.1749 -1.25,9.3262 0,7.1776 0.311415,9.0163 1.65039,9.7656 1.072658,0.6003 1.45267,1.6735 1.087891,3.0684 -0.385652,1.4747 0.69221,4.0236 3.449219,8.1523 2.205872,3.3033 5.429262,7.0845 7.1621093,8.4024 1.732846,1.318 5.419981,3.5338 8.193359,4.9238 3.827767,1.9185 7.200362,2.6598 13.9999997,3.082 4.926622,0.3059 163.4705,0.755 352.32031,0.9981 188.84981,0.2431 343.64981,0.7452 344,1.1152 0.35019,0.3693 17.51172,0.3916 38.13672,-0.012 20.625,-0.3751 71.025,-0.6873 112,-0.6973 40.975,-0.01 78.88217,-0.4197 84.22848,-0.9121 7.5798,-0.6977 11.0021,-1.5389 15.5,-3.8144 3.1749,-1.6062 7.7418,-4.8819 10.1504,-7.2774 2.4085,-2.3955 5.6025,-7.0554 7.0977,-10.3554 2.5042,-5.5269 2.6879,-6.7886 2.3144,-16 -0.2231,-5.5 -0.784,-10.9 -1.2461,-12 -0.4622,-1.1 -1.5857,-3.575 -2.4961,-5.5 -0.9105,-1.925 -3.4374,-6.65 -5.6152,-10.5 -2.1778,-3.85 -4.74,-8.575 -5.6953,-10.5 -0.9554,-1.925 -2.1883,-4.0766 -2.7383,-4.7832 -0.55,-0.7066 -1.5625,-1.913 -2.25,-2.6797 -0.6875,-0.7666 -1.25,-1.863 -1.25,-2.4356 0,-0.5725 -0.8748,-2.5999 -1.9453,-4.5058 -1.0704,-1.9058 -3.018,-5.1809 -4.3281,-7.2793 -1.31,-2.0984 -3.0201,-5.2789 -3.7988,-7.0664 -0.7788,-1.7875 -1.7565,-3.25 -2.1739,-3.25 -0.4174,0 -1.5391,-1.8 -2.4922,-4 -0.9531,-2.2 -2.0777,-4 -2.498,-4 -0.4203,0 -0.76368,-0.9 -0.76368,-2 0,-1.1 -0.39564,-2 -0.87891,-2 -0.48327,0 -1.45339,-1.3871 -2.15625,-3.084 -0.70285,-1.6968 -1.76972,-3.6188 -2.37109,-4.2695 -0.60137,-0.6507 -1.87711,-2.5881 -2.83594,-4.3067 -0.95882,-1.7186 -2.75882,-5.086 -4,-7.4824 -1.24117,-2.3963 -2.59531,-4.5062 -3.00781,-4.6895 -0.4125,-0.1834 -0.75,-0.6822 -0.75,-1.1074 0,-0.4253 -2.29377,-4.7746 -5.09766,-9.666 -2.80389,-4.8914 -5.65313,-9.5695 -6.33203,-10.3945 -0.6789,-0.825 -1.9706,-3.075 -2.86914,-5 -0.89855,-1.925 -2.99581,-5.525 -4.66211,-8 -1.66631,-2.475 -3.03315,-4.8806 -3.03515,-5.3457 -0.002,-0.4651 -1.01641,-2.2625 -2.25391,-3.9942 -1.2375,-1.7316 -3.19334,-4.951 -4.34766,-7.1543 -1.15433,-2.2033 -3.79832,-6.9308 -5.875,-10.5058 -2.07668,-3.575 -4.76932,-8.3 -5.98437,-10.5 -1.21505,-2.2 -3.16571,-5.575 -4.33399,-7.5 -1.16827,-1.925 -2.89058,-5.075 -3.82812,-7 -0.93753,-1.925 -2.65815,-4.85 -3.82227,-6.5 -1.16412,-1.65 -3.22263,-5.25 -4.57422,-8 -1.35159,-2.75 -2.72645,-5.225 -3.05664,-5.5 -0.33018,-0.275 -2.99826,-5 -5.92773,-10.5 -2.92947,-5.5 -5.59041,-10.225 -5.91406,-10.5 -0.32364,-0.275 -1.24647,-1.85 -2.05078,-3.5 -0.8043,-1.65 -2.37823,-4.3475 -3.49805,-5.9942 -1.11982,-1.6467 -2.96794,-4.7967 -4.10547,-7 -1.13753,-2.2033 -3.52022,-6.4808 -5.29492,-9.5058 -1.7747,-3.025 -3.76887,-6.3966 -4.43164,-7.4942 -0.66277,-1.0976 -1.92007,-3.1226 -2.79492,-4.5 -0.87484,-1.3774 -3.51871,-6.1058 -5.875,-10.5058 -2.3563,-4.4 -5.0163,-9.1265 -5.91016,-10.5039 -0.89386,-1.3774 -2.18813,-3.4024 -2.87695,-4.5 -0.68881,-1.0976 -1.69326,-2.8961 -2.23243,-3.9961 -0.53918,-1.1 -2.10767,-3.8 -3.48632,-6 -1.37866,-2.2 -2.95366,-4.9 -3.5,-6 -0.54635,-1.1 -2.10351,-3.8 -3.45899,-6 -1.35549,-2.2 -4.73856,-7.9989 -7.51758,-12.8868 -2.77903,-4.888 -5.05273,-9.2755 -5.05273,-9.75 0,-0.4746 -0.34214,-0.8632 -0.76172,-0.8632 -0.41958,0 -1.20708,-0.8556 -1.75,-1.9024 -0.54292,-1.0468 -1.8642,-3.6343 -2.93555,-5.75 -1.07134,-2.1157 -2.24174,-4.0726 -2.59961,-4.3476 -0.35787,-0.275 -1.91574,-2.75 -3.46289,-5.5 -1.54714,-2.75 -3.43852,-6.125 -4.20312,-7.5 -0.76461,-1.375 -2.5012,-4.3 -3.85938,-6.5 -1.35818,-2.2 -2.75265,-4.675 -3.09961,-5.5 -0.34695,-0.825 -1.17234,-2.175 -1.83203,-3 -0.65969,-0.825 -2.2738,-3.525 -3.58789,-6 -1.3141,-2.475 -3.40582,-5.8919 -4.64843,-7.5938 -1.24262,-1.7019 -2.25977,-3.4118 -2.25977,-3.7988 0,-0.387 -1.575,-3.1645 -3.5,-6.1738 -1.925,-3.0092 -3.5,-5.7092 -3.5,-6 0,-0.2907 -1.575,-2.9907 -3.5,-6 -1.925,-3.0092 -3.5,-5.6449 -3.5,-5.8575 0,-0.2127 -2.30433,-4.3682 -5.12109,-9.2325 -2.81677,-4.8642 -6.82034,-11.7687 -8.89649,-15.3436 -2.07614,-3.5751 -6.44537,-11 -9.70898,-16.5 -3.26362,-5.5 -6.23269,-10.675 -6.59766,-11.5 -0.36498,-0.8251 -1.22891,-2.382 -1.91992,-3.461 -0.691,-1.0792 -2.29155,-3.6973 -3.55859,-5.8164 -1.26704,-2.1193 -3.11853,-5.2855 -4.11329,-7.0371 -0.99475,-1.7516 -4.17465,-7.2355 -7.0664,-12.1855 -2.89175,-4.9501 -6.83196,-11.925 -8.75586,-15.5 -1.92389,-3.5751 -4.34386,-7.6945 -5.37891,-9.1543 -1.03506,-1.4599 -1.88281,-2.875 -1.88281,-3.1446 0,-0.2697 -4.275,-7.7853 -9.5,-16.7011 -5.225,-8.9159 -9.5,-16.3514 -9.5,-16.5235 0,-0.1722 -2.7,-4.887 -6,-10.4766 -3.3,-5.5896 -6,-10.3411 -6,-10.5606 0,-0.2195 -1.575,-2.86188 -3.5,-5.871 -1.925,-3.00926 -3.5,-5.76123 -3.5,-6.11524 0,-0.35402 -0.83531,-1.83893 -1.85742,-3.29883 -1.0221,-1.4599 -3.34632,-5.35429 -5.16406,-8.65429 -1.81773,-3.3 -4.19529,-7.575 -5.28321,-9.5 -1.08792,-1.925 -3.11222,-5.525 -4.5,-8 -1.38777,-2.475 -3.32672,-5.93196 -4.30664,-7.6836 -0.97992,-1.75163 -2.92944,-5.00553 -4.33398,-7.23046 -1.40454,-2.22494 -2.55469,-4.27163 -2.55469,-4.54688 0,-0.27525 -1.575,-2.96144 -3.5,-5.9707 -1.925,-3.00926 -3.5,-5.68152 -3.5,-5.9375 0,-0.25597 -2.025,-3.88989 -4.5,-8.07617 -2.475,-4.18629 -4.5,-7.84528 -4.5,-8.13086 0,-0.28558 -1.575,-2.98098 -3.5,-5.99024 -1.925,-3.00926 -3.5,-5.6712 -3.5,-5.91601 0,-0.24481 -1.96171,-3.72346 -4.35938,-7.73047 -2.39766,-4.00701 -7.66054,-12.91211 -11.69531,-19.78711 -4.03477,-6.875 -10.68925,-18.125 -14.78711,-25 -4.09786,-6.875 -8.20951,-13.85 -9.13867,-15.5 -0.92917,-1.65 -2.85522,-5.09265 -4.2793,-7.65039 -1.42407,-2.55775 -3.64605,-6.38275 -4.9375,-8.5 -1.29144,-2.11726 -3.00269,-5.19961 -3.80273,-6.84961 -0.80004,-1.65 -2.50173,-4.7161 -3.78125,-6.81446 -1.27952,-2.09837 -3.24067,-5.47337 -4.35938,-7.5 -1.11872,-2.02664 -5.48302,-9.48634 -9.69726,-16.57812 -4.21424,-7.09177 -9.74782,-15.19177 -12.29688,-18 -2.65283,-2.92254 -7.14274,-6.37008 -10.5,-8.06055 -4.78308,-2.40841 -7.43363,-3.02557 -14.36523,-3.3457 -1.72572,-0.0797 -3.18498,-0.11825 -4.47656,-0.10547 z m 3.22851,163.37305 c 0.11651,-0.005 0.21806,0.0145 0.29883,0.0644 0.43079,0.26624 2.93269,4.19327 5.55859,8.72656 2.6259,4.53329 9.70127,16.79219 15.72461,27.24219 6.02335,10.45 13.65825,23.725 16.9668,29.5 3.30855,5.775 7.36294,12.975 9.00977,16 1.64683,3.02503 3.83089,6.70271 4.85351,8.17181 1.02262,1.4692 3.15104,5.0692 4.72852,8 1.57748,2.9309 8.29935,14.7782 14.9375,26.3282 6.63815,11.55 12.42882,21.4762 12.86914,22.0586 0.44032,0.5823 1.64657,2.6073 2.67969,4.5 1.03311,1.8926 3.021,5.4664 4.41796,7.9414 1.39697,2.475 4.54684,7.875 7,12 2.45315,4.125 5.34679,9.075 6.42969,11 1.0829,1.925 2.76826,4.4 3.7461,5.5 0.97783,1.1 3.23224,4.7 5.00976,8 1.77752,3.3 4.23989,7.575 5.4707,9.5 1.2308,1.925 4.05664,6.65 6.2793,10.5 2.22265,3.85 4.91315,8.575 5.98047,10.5 1.06733,1.925 3.67234,6.65 5.78711,10.5 2.11477,3.85 4.60731,8.125 5.53906,9.5 0.93175,1.375 3.40462,5.65 5.4961,9.5 2.09149,3.85 5.97754,10.524 8.63476,14.8301 2.65723,4.3061 4.83008,7.9979 4.83008,8.205 0,0.2073 1.35,2.6665 3,5.4648 1.65,2.7984 3,5.5578 3,6.131 0,0.573 5.24128,10.1148 11.64648,21.205 6.4052,11.0903 14.79448,25.5641 18.64258,32.164 3.8481,6.6 8.4581,14.475 10.2461,17.5 1.788,3.0251 4.49822,7.75 6.02148,10.5 1.52325,2.75 6.14118,10.85 10.26172,18 4.12055,7.1501 9.82689,17.05 12.68164,22 2.85475,4.95 9.48018,16.425 14.72266,25.5 5.24248,9.075 10.46343,18.1591 11.60156,20.1856 1.13814,2.0266 3.11501,5.4016 4.39453,7.5 1.27952,2.0985 2.99109,5.1644 3.80273,6.8144 0.81165,1.6501 1.7231,3.225 2.02539,3.5 0.30228,0.2751 1.71329,2.5251 3.13672,5 1.42342,2.475 3.61587,6.3 4.8711,8.5 1.25523,2.2 3.28397,5.8 4.50781,8 1.22384,2.2 7.06139,12.325 12.97266,22.5 5.91127,10.175 11.39228,19.7381 12.17968,21.25 0.7874,1.5121 2.41,2.9719 3.60743,3.2443 1.19743,0.2722 5.0419,0.6093 8.54296,0.75 l 6.36719,0.2557 1.79297,5 c 0.98682,2.75 3.60518,10.625 5.81836,17.5 2.21318,6.875 4.56483,14.075 5.22461,16 0.65977,1.925 1.52473,4.175 1.92383,5 0.3991,0.825 1.12712,1.3902 1.61718,1.2539 0.49005,-0.1363 1.11563,-10.2613 1.39063,-22.5 l 0.5,-22.2539 23.5,-0.3008 c 15.51522,-0.1984 25.53867,0.109 29.5,0.9043 3.3,0.6626 7.93073,2.094 10.28906,3.1797 2.35834,1.0856 5.80022,3.8286 7.64844,6.0957 1.84823,2.2672 4.04922,6.4615 4.89258,9.3223 0.84336,2.8608 1.83232,10.9608 2.19726,18 0.37912,7.3131 0.20497,17.1308 -0.40625,22.9062 -0.58834,5.5592 -1.93447,12.0842 -2.99023,14.5 -1.05576,2.4157 -3.87964,6.2522 -6.27539,8.5235 -2.39576,2.2713 -5.70547,4.4272 -7.35547,4.7929 -1.65,0.3657 -6.81593,1.3377 -11.48047,2.1583 -6.66613,1.1725 -15.79681,1.4303 -42.66797,1.205 -18.80276,-0.1576 -34.45933,-0.5602 -34.79297,-0.8945 -0.33364,-0.3342 -1.45999,-3.0342 -2.50195,-6 l -1.89453,-5.3926 -5.33594,-0.291 -5.33789,-0.293 -1.99414,5.793 -1.99414,5.791 -5.26758,0.6446 c -2.89692,0.3533 -11.08256,0.5423 -18.1914,0.4199 -8.59083,-0.1479 -13.43181,-0.6436 -14.43555,-1.4766 -1.21595,-1.0092 -3.00085,-0.9445 -9.16406,0.3301 -4.68805,0.9695 -12.68548,1.582 -20.63477,1.582 -10.39409,0 -14.48103,-0.4354 -20.51758,-2.1894 -7.44156,-2.1622 -7.55448,-2.1654 -8.95508,-0.25 -1.31519,1.7988 -2.7636,1.9394 -19.82031,1.9394 -17.79342,0 -18.46701,-0.074 -20.49414,-2.25 -1.1529,-1.2375 -2.53001,-2.25 -3.05859,-2.25 -0.52857,0 -0.96094,0.6867 -0.96094,1.5254 0,0.8386 -1.0125,1.8708 -2.25,2.293 -1.2375,0.4222 -9.57688,0.6973 -18.53125,0.6113 -8.95436,-0.086 -16.60436,-0.478 -17,-0.8711 -0.39563,-0.393 -0.94375,-5.5174 -1.21875,-11.3867 l -0.5,-10.6719 -19.87109,-0.2715 c -13.81229,-0.1888 -20.29188,0.078 -21.25,0.8731 -0.98469,0.8172 -1.38364,3.7512 -1.39454,10.2715 -0.008,5.0202 -0.39377,9.7256 -0.85742,10.457 -0.61613,0.9718 -4.98483,1.4731 -16.23437,1.8594 -9.94094,0.3414 -16.36645,0.1432 -18.14258,-0.5567 -2.7399,-1.0795 -2.75,-1.1197 -2.75,-10.9082 0,-6.3082 -0.42874,-10.2529 -1.19922,-11.0234 -0.67937,-0.6794 -3.93333,-1.2012 -7.5,-1.2012 -4.31014,0 -6.33687,0.3948 -6.41797,1.25 -0.0652,0.6875 -0.0339,1.925 0.0703,2.75 0.1042,0.825 1.58437,5.2107 3.28907,9.7461 1.7047,4.5355 2.76028,8.5855 2.3457,9 -0.41458,0.4146 -9.04259,0.7017 -19.17383,0.6367 l -18.42187,-0.1172 -2.7168,-2.7168 -2.71875,-2.7186 -0.82617,2.4824 c -0.45491,1.3647 -1.73888,2.7183 -2.85352,3.0098 -1.11464,0.2919 -24.19981,0.4525 -51.29883,0.3555 -40.09543,-0.1433 -49.57805,-0.4321 -50.92382,-1.5489 -1.32375,-1.0986 -1.6543,-3.2492 -1.6543,-10.7754 0,-9.3294 -0.0213,-9.4102 -2.75,-10.4785 -1.65884,-0.6499 -7.13548,-0.895 -13.80273,-0.6172 -6.07907,0.2533 -12.04157,0.9901 -13.25,1.6368 -2.02589,1.0842 -2.19727,1.9161 -2.19727,10.666 0,9.3537 -0.037,9.5034 -2.6582,10.5 -1.47264,0.5599 -9.49505,0.9171 -17.97852,0.7988 -8.42567,-0.1175 -15.89259,-0.5668 -16.5918,-0.9981 -0.85974,-0.5304 -1.38124,-4.1876 -1.61132,-11.2949 l -0.33985,-10.5097 -3.16015,-0.5293 c -1.73788,-0.2913 -8.78516,-0.1905 -15.66016,0.2226 l -12.5,0.75 -0.5,10.1719 c -0.275,5.5942 -0.87506,10.5442 -1.33398,11 -0.45891,0.4557 -29.03391,0.8585 -63.5,0.8945 -34.46608,0.036 -64.01602,-0.2048 -65.66602,-0.5371 -2.47913,-0.4992 -3.08681,-1.1932 -3.5,-3.9883 -0.275,-1.8603 -0.95367,-3.5303 -1.50781,-3.7129 -0.55413,-0.1826 -2.12913,0.6811 -3.5,1.92 -1.37086,1.2389 -3.61719,2.7777 -4.99219,3.4199 -1.375,0.6421 -4.03894,1.6585 -5.91992,2.2578 -1.88098,0.5993 -7.055978,1.2712 -11.499998,1.4941 -4.44402,0.223 -12.80508,0.013 -18.58008,-0.4687 -5.775,-0.4811 -12.975,-1.2288 -16,-1.6621 l -5.5,-0.7891 -0.86133,-12.25 c -0.47369,-6.7376 -0.56619,-13.8251 -0.20508,-15.75 0.57443,-3.0619 1.02631,-3.5 3.61133,-3.5 1.62508,0 2.95508,-0.361 2.95508,-0.8027 0,-0.4416 -1.30116,-2.5791 -2.89258,-4.75 -1.59142,-2.1708 -3.61642,-6.3916 -4.5,-9.3789 -0.88358,-2.9873 -1.60742,-7.8011 -1.60742,-10.6992 0,-2.8981 0.5096,-7.6402 1.13086,-10.5371 0.62127,-2.8968 2.04118,-7.017 3.15625,-9.1563 1.11506,-2.1393 3.80309,-5.177 5.97461,-6.75 2.17152,-1.5731 6.39308,-3.7747 9.38086,-4.8926 4.50672,-1.6862 7.80736,-2.0332 19.36719,-2.0332 9.33786,0 16.450798,0.5542 21.564448,1.6778 5.97702,1.3134 8.03974,1.4217 9.51562,0.5 1.26717,-0.7913 7.909,-1.1778 20.28125,-1.1778 18.22705,0 18.40231,0.021 19.01953,2.25 l 0.62305,2.25 1.88867,-2.4355 c 1.03861,-1.3399 4.97179,-7.8395 8.74219,-14.4434 3.77041,-6.6038 8.29694,-14.5081 10.05859,-17.5644 1.76165,-3.0563 3.8233,-6.6817 4.58204,-8.0567 0.75874,-1.375 5.66347,-9.925 10.89843,-19 5.23496,-9.075 13.02469,-22.575 17.31055,-30 4.28586,-7.425 8.5601,-14.85 9.49805,-16.5 0.93795,-1.65 4.53034,-7.95 7.98437,-14 3.45402,-6.05 7.17856,-12.575 8.27539,-14.5 1.09683,-1.925 4.0334,-7.1 6.52539,-11.5 2.49198,-4.4 5.60964,-9.716 6.92969,-11.8144 1.32004,-2.0984 3.33256,-5.4734 4.4707,-7.5 1.13813,-2.0266 6.35918,-11.1106 11.60352,-20.1856 5.24433,-9.075 11.09676,-19.2 13.00586,-22.5 1.90911,-3.3 4.82824,-8.475 6.48633,-11.5 1.65809,-3.025 3.35923,-5.95 3.77929,-6.5 0.42007,-0.55 5.15483,-8.65 10.52149,-18 5.36667,-9.35 12.2209,-21.5 15.23242,-27 3.01152,-5.5 6.98643,-12.3713 8.83398,-15.2695 1.84755,-2.8982 3.35938,-5.4471 3.35938,-5.666 0,-0.2189 2.01427,-3.8059 4.47656,-7.9707 2.46229,-4.1648 6.13546,-10.6139 8.16211,-14.3321 2.02664,-3.7182 5.18737,-9.133 7.02344,-12.0312 1.83606,-2.8982 3.33789,-5.4642 3.33789,-5.7031 0,-0.2388 3.76675,-6.8675 8.36914,-14.7305 4.60239,-7.8629 13.44227,-23.0719 19.64453,-33.7969 6.20226,-10.725 12.89801,-22.3526 14.88086,-25.8398 1.98285,-3.4872 4.05875,-7.0872 4.61133,-8 0.55258,-0.9128 3.36508,-5.6397 6.25,-10.5039 2.88492,-4.8642 5.24414,-8.9728 5.24414,-9.1309 0,-0.1581 3.6,-6.4699 8,-14.0254 4.4,-7.5555 8,-13.95058 8,-14.21288 0,-0.2624 0.84867,-1.67293 1.88477,-3.13283 1.03611,-1.4599 3.64846,-6.0293 5.80664,-10.1543 2.15817,-4.125 5.18419,-9.75 6.72461,-12.5 1.54041,-2.75 3.80323,-6.575 5.02734,-8.5 1.2241,-1.925 5.5222,-9.35 9.55273,-16.5 4.03053,-7.15 9.58006,-16.825 12.33203,-21.5 2.75196,-4.675 5.66545,-9.27703 6.47266,-10.22656 0.65587,-0.77149 1.4463,-1.28393 1.95117,-1.30664 z m -52.91992,212.80466 c -0.17905,0.014 -0.3558,0.032 -0.52734,0.051 0.0764,0.3393 0.0751,0.718 0.0293,1.1152 0.16588,-0.3882 0.33272,-0.7775 0.49805,-1.166 z m 170.86719,160.6309 c -0.23412,0.2535 -0.46889,0.5063 -0.70313,0.7597 0.022,0.2656 0.033,0.5282 0.0293,0.7852 0.28392,-0.047 0.61916,-0.1046 1.01758,-0.1719 -0.11446,-0.4583 -0.2288,-0.9151 -0.34375,-1.373 z m 1.52148,8.9648 c -0.24311,0.049 -0.46272,0.093 -0.66015,0.1328 -0.0823,0.3096 -0.16826,0.6225 -0.25586,0.9336 0.30915,-0.3525 0.61522,-0.7072 0.91601,-1.0664 z m -253.37109,9.6875 c -0.0512,0.1102 -0.10148,0.2217 -0.15234,0.332 0.25055,0.033 0.49363,0.064 0.72851,0.094 -0.18868,-0.1377 -0.38109,-0.2802 -0.57617,-0.4258 z m 255.99219,1.0293 c -0.51674,0.3098 -1.14566,0.5403 -1.88282,0.6582 0.5116,0.072 1.03502,0.1397 1.5586,0.2031 0.10843,-0.287 0.21598,-0.5742 0.32422,-0.8613 z m -46.19532,0.074 c -0.0214,0.1079 -0.0432,0.2248 -0.0645,0.3242 0.0364,-0.044 0.0728,-0.089 0.10938,-0.1328 -0.0153,-0.064 -0.0298,-0.1281 -0.0449,-0.1914 z m -82.28711,167.3828 c 0.0171,0.1141 0.0324,0.229 0.0449,0.3438 0.37579,-0.1105 0.75088,-0.2206 1.12695,-0.3301 -0.39077,0 -0.78112,-0.01 -1.17188,-0.014 z m 235.7754,6.877 0.01,0.08 h 0.36133 c -0.12751,-0.028 -0.25064,-0.054 -0.37109,-0.08 z m 16.48242,19.9141 c 0.0392,1.2195 0.10763,1.5647 0.13867,2.9238 0.0809,-0.882 0.12021,-1.7727 -0.0645,-2.6387 -0.0193,-0.097 -0.0537,-0.191 -0.0742,-0.2851 z m -197.26367,8.4062 c -0.20348,0.1086 -0.27928,0.1984 -0.27735,0.2324 h 0.002 0.002 0.002 0.002 0.002 0.002 c 0.0352,0 0.13159,-0.05 0.24414,-0.1953 l 0.0234,-0.029 h -0.002 z m -424.49219,9.9277 v 0.01 c 0.0126,0.024 0.027,0.044 0.0391,0.068 2.4e-4,0 2.1e-4,-0.014 0,-0.014 h -0.002 c -1.7e-4,0 0,0 0,-0.01 -0.006,-0.013 -0.0238,-0.034 -0.0371,-0.055 z m 0.34765,9.9161 c -0.12244,0.2385 -0.25631,0.4726 -0.40234,0.6992 0.24336,-0.08 0.48667,-0.1622 0.73047,-0.2403 -0.11362,-0.1448 -0.22283,-0.2986 -0.32813,-0.4589 z m 278.94922,0.9316 c 1.1e-4,0 2.3e-4,10e-5 0,0.01 h 0.002 0.002 v -0.01 h -0.002 z m -0.01,0.012 c 10e-5,0 2.3e-4,-2e-4 0,0.01 h 0.002 0.002 c 3.4e-4,0 0.001,0 0.002,-0.01 h -0.002 -0.002 z m -0.0156,0.02 c -0.16428,0.1062 -0.32891,0.2131 -0.48828,0.3262 -0.0457,0.032 -0.14535,0.1307 -0.16601,0.1602 h 0.002 0.002 0.002 0.002 0.002 0.002 c 0.21569,-0.1356 0.41145,-0.3007 0.61719,-0.4512 0.008,-0.01 0.0172,-0.014 0.0254,-0.022 z m 154.94531,2.3399 v 0 c -6e-4,0 -0.002,0.01 -0.002,0.01 h 0.002 0.002 0.002 v -0.01 h -0.002 z m -0.0156,0.012 h 0.002 z m -0.0254,0.029 c -0.0892,0.052 -0.17756,0.1067 -0.26172,0.166 -0.0365,0.026 -0.11333,0.099 -0.12305,0.1289 h 0.002 0.002 0.002 0.002 0.002 0.002 0.002 0.002 c 0.0147,0 0.33167,-0.2621 0.35937,-0.2851 h 0.002 0.002 0.002 0.002 v 0 0 c 2.3e-4,0 0.002,0 0.002,0 z m 276.06055,0.5957 c -0.0688,0.086 -0.1388,0.1696 -0.21094,0.25 0.15784,0.041 0.31565,0.08 0.47461,0.1172 -0.0887,-0.1279 -0.17639,-0.2504 -0.26367,-0.3672 z m -744.720708,0.5488 c -0.002,0.01 -0.002,0.015 -0.004,0.025 h 0.004 z m -0.004,0.029 c -0.0774,0.081 -0.15402,0.1555 -0.20118,0.25 0.0175,-0.01 0.0748,-0.057 0.10157,-0.062 h 0.002 0.002 0.002 0.002 0.002 0.002 c 0.007,0.032 -0.0174,0.069 -0.0254,0.1016 -0.009,0.033 -0.0448,0.1111 -0.0488,0.1367 h 0.002 0.002 0.002 0.002 0.002 0.002 c 0.049,-0.041 0.063,-0.1079 0.0801,-0.1699 0.0234,-0.085 0.0494,-0.1703 0.0703,-0.2559 z m 463.978508,3.7149 c -0.004,0.014 -0.007,0.028 -0.0117,0.043 0.002,0.036 -0.0184,0.083 -0.006,0.1133 h 0.002 0.002 v 0 c 3.3e-4,0 10e-4,0 0.002,0.01 h 0.002 0.002 0.002 0.002 0.002 0.002 0.002 0.002 0.002 0.002 0.002 0.002 0.002 c 0.0157,-0.014 0.0316,-0.05 0.0371,-0.07 h 0.002 c -10e-5,0 -2.2e-4,-1e-4 0,-0.01 -0.0168,-0.028 -0.0362,-0.056 -0.0527,-0.086 z m 231.15821,1.2754 c -0.0265,0.098 -0.0493,0.1957 -0.0684,0.289 -0.006,0.03 -0.0227,0.099 -0.0195,0.1192 h 0.002 0.002 0.002 0.002 0.004 c 0.0362,-0.043 0.037,-0.1061 0.043,-0.1621 0.009,-0.081 0.0245,-0.164 0.0332,-0.2461 z m -133.69727,1.4746 c -0.16867,0.1143 -0.34622,0.2282 -0.52148,0.334 -0.0175,0.01 -0.0353,0.021 -0.0527,0.031 0.0716,-0.018 0.13197,-0.042 0.17969,-0.061 0.14167,-0.056 0.27663,-0.1489 0.39453,-0.3028 z m -20.83398,0.6269 -0.002,0.2891 h 0.19922 c -0.0645,-0.097 -0.13095,-0.1936 -0.19726,-0.2891 z" />
                    <path id="path43" style="fill:#121010" d="m 418.24477,1094.0403 c -2.78065,-0.1064 -5.4464,-0.1 -7.32813,0.027 -5.15172,0.3649 -8.48611,1.3225 -13.49218,3.8711 -5.6599,2.8815 -7.24636,4.3168 -10.65821,9.6484 -2.20451,3.4449 -6.93281,11.0141 -10.50781,16.8223 -3.575,5.8081 -8.4125,13.4837 -10.75,17.0566 -2.3375,3.573 -4.25,6.7084 -4.25,6.9668 0,0.2584 -1.575,2.9321 -3.5,5.9414 -1.925,3.0092 -3.5,6.0903 -3.5,6.8457 0,0.7555 0.5625,1.5641 1.25,1.7989 0.6875,0.235 5.87093,0.3508 11.51758,0.2578 5.64665,-0.093 10.42615,-0.3503 10.62109,-0.5703 0.19494,-0.22 2.26761,-3.7754 4.60742,-7.9004 2.33982,-4.125 5.38872,-9.525 6.77344,-12 1.38473,-2.475 3.2416,-5.625 4.12695,-7 0.88536,-1.375 2.73391,-4.6629 4.10743,-7.3067 1.37352,-2.6439 3.81349,-6.1586 5.42382,-7.8105 1.61034,-1.652 4.19784,-3.2579 5.75,-3.5684 1.55217,-0.3104 2.82227,-0.988 2.82227,-1.5058 0,-0.553 4.03902,-0.7764 9.75,-0.543 5.3625,0.2191 16.275,1.1578 24.25,2.084 7.975,0.9263 17.875,2.3074 22,3.0703 4.125,0.763 10.875,1.9115 15,2.5508 4.125,0.6394 9.075,1.5367 11,1.9961 1.925,0.4593 7.325,1.3748 12,2.0332 4.675,0.6583 9.61048,1.6373 10.9668,2.1758 1.35632,0.5385 6.53132,1.8779 11.5,2.9765 4.96868,1.0986 10.6082,2.377 12.5332,2.8399 1.925,0.4629 7.19333,1.7663 11.70703,2.8984 4.51369,1.1322 10.25362,3.0211 12.75586,4.1973 2.50224,1.1762 5.66048,3.4594 7.01758,5.0722 1.3571,1.6129 2.97734,4.8242 3.60156,7.1367 0.62422,2.3125 1.5138,6.6782 1.97656,9.7032 0.46276,3.025 1.33095,8.2 1.92969,11.5 0.59874,3.3 1.73998,9.8836 2.53516,14.6289 0.79519,4.7452 1.69344,9.2718 1.99609,10.0605 0.30266,0.7887 2.22222,2.0471 4.26563,2.7949 2.0434,0.7478 5.73984,2.1384 8.21484,3.0918 2.475,0.9535 5.7375,1.7781 7.25,1.8301 1.68973,0.058 2.75,-0.4258 2.75,-1.2558 0,-0.7429 -0.40211,-2.6554 -0.89453,-4.25 -0.49241,-1.5945 -1.86199,-8.5254 -3.04297,-15.4004 -1.18097,-6.875 -3.07213,-17 -4.20313,-22.5 -1.13099,-5.5 -2.51001,-12.6984 -3.06445,-15.9981 -0.55444,-3.2997 -1.81594,-7.5833 -2.80273,-9.5176 -0.9868,-1.9343 -3.3007,-5.1069 -5.14258,-7.0507 -1.84187,-1.9439 -4.56385,-4.2953 -6.04883,-5.2246 -1.48499,-0.9293 -5.98499,-2.7626 -10,-4.0743 -4.01502,-1.3118 -10.67578,-3.1997 -14.80078,-4.1953 -4.125,-0.9956 -7.92672,-2.1769 -8.44922,-2.625 -0.5225,-0.448 -2.3225,-0.8277 -4,-0.8437 -1.6775,-0.016 -6.20078,-0.926 -10.05078,-2.0235 -3.85,-1.0975 -10.825,-2.6941 -15.5,-3.5468 -4.675,-0.8528 -9.85,-1.9489 -11.5,-2.4375 -1.65,-0.4886 -7.5,-1.6094 -13,-2.4903 -5.5,-0.881 -11.38126,-2.023 -13.07031,-2.5371 -1.68905,-0.5142 -4.33723,-0.9355 -5.88477,-0.9355 -1.54754,0 -5.56628,-0.4552 -8.92969,-1.0117 -3.36342,-0.5565 -11.74023,-1.7005 -18.61523,-2.543 -6.875,-0.8426 -16.325,-2.0123 -21,-2.5996 -2.3375,-0.2916 -5.23303,-0.5049 -8.01367,-0.6114 z m 10.58203,31.9454 c -1.23527,-0.045 -2.54306,0.1994 -4.46875,0.7129 -2.52958,0.6745 -5.85177,2.4236 -7.38281,3.8867 -1.53104,1.4631 -3.37818,4.6961 -4.10352,7.1836 -0.93113,3.1934 -1.03843,5.5527 -0.36719,8.0293 0.52289,1.9293 2.05532,4.9703 3.4043,6.7578 1.34898,1.7875 2.91136,3.25 3.47266,3.25 0.5613,0 1.6635,0.644 2.44922,1.4297 0.78571,0.7857 1.42773,1.6857 1.42773,2 0,0.3143 -1.37452,0.5703 -3.05469,0.5703 -1.68018,0 -4.97378,0.8743 -7.32031,1.9433 -2.34653,1.0689 -6.14834,3.7689 -8.44727,6 l -4.17968,4.0567 -20.24805,0.066 c -11.13688,0.036 -25.19327,0.6011 -31.23438,1.2558 l -10.98242,1.1914 -2.17968,3.9922 c -1.19898,2.1966 -2.26866,5.1192 -2.37696,6.4942 -0.1083,1.375 -0.14756,3.0625 -0.0859,3.75 0.0646,0.7293 1.50602,1.25 3.46094,1.25 1.84292,0 4.65542,0.3969 6.25,0.8808 1.59457,0.484 7.17344,1.6293 12.39844,2.545 5.225,0.9156 11.75,2.0751 14.5,2.5781 2.75,0.5029 7.84019,1.4826 11.31055,2.1758 3.47036,0.6932 6.80667,1.858 7.41406,2.5898 0.74756,0.9008 0.80823,2.5268 0.18945,5.0313 -0.76904,3.1127 -1.39012,3.7547 -3.91406,4.0449 -1.65,0.1898 -5.25,-0.1244 -8,-0.6992 -2.75,-0.5747 -9.5,-1.7801 -15,-2.6778 -5.5,-0.8977 -11.8,-2.0031 -14,-2.457 -2.2,-0.4539 -6.7,-1.3153 -10,-1.9141 -5.32404,-0.9661 -6.14635,-0.8932 -7.29492,0.6563 -0.71192,0.9604 -1.16192,3.5461 -1,5.7461 0.29336,3.9859 0.31252,4.0033 5.29492,4.707 2.75,0.3883 7.475,1.134 10.5,1.6582 3.025,0.5242 10.675,1.8917 17,3.0371 6.325,1.1454 13.64749,2.5832 16.27148,3.1953 2.79779,0.6527 5.18582,1.8864 5.77344,2.9844 0.76396,1.4275 0.55257,2.3205 -0.88476,3.7578 -1.56236,1.5624 -2.63537,1.7512 -6.27149,1.1035 -2.41321,-0.4299 -8.43867,-1.5175 -13.38867,-2.4179 -4.95,-0.9005 -11.25,-2.0472 -14,-2.5469 -2.75,-0.4996 -7.925,-1.3808 -11.5,-1.959 -3.575,-0.5783 -7.34383,-1.3177 -8.375,-1.6426 -1.0661,-0.3359 -2.24545,0 -2.73438,0.7676 -0.47292,0.7463 -0.867,2.9586 -0.875,4.916 -0.008,1.9573 0.54688,4.3146 1.23438,5.2383 0.84101,1.1299 5.01275,2.3668 12.75,3.7813 6.325,1.1564 13.75,2.4883 16.5,2.9609 2.75,0.4726 7.25,1.2907 10,1.8183 2.75,0.5276 9.05,1.6895 14,2.5821 4.95,0.8926 11.25,2.0722 14,2.6211 2.75,0.5488 10.175,1.8724 16.5,2.9394 6.325,1.067 15.325,2.6594 20,3.541 4.675,0.8816 10.525,1.9971 13,2.4766 2.475,0.4795 8.55,1.5628 13.5,2.4082 4.95,0.8454 11.475,2.035 14.5,2.6445 3.025,0.6096 7.3,1.5114 9.5,2.0039 2.2,0.4926 7.15,1.3895 11,1.9922 3.85,0.6027 9.25,1.4855 12,1.9629 2.75,0.4774 8.825,1.5359 13.5,2.3516 4.675,0.8157 10.75,1.9926 13.5,2.6152 2.75,0.6226 7.7,1.5488 11,2.0586 3.3,0.5099 8.475,1.3637 11.5,1.8965 3.025,0.5329 11.575,2.1209 19,3.5293 7.425,1.4084 16.65,3.17 20.5,3.9141 3.85,0.7441 8.43159,1.4095 10.18164,1.4785 2.47148,0.098 3.65831,-0.5425 5.31641,-2.8711 1.26042,-1.7701 2.00531,-4.1152 1.81836,-5.7246 -0.27553,-2.372 -0.90043,-2.8295 -4.81641,-3.5274 -2.475,-0.4411 -10.35,-1.8942 -17.5,-3.2285 -7.15,-1.3342 -16.375,-2.9688 -20.5,-3.6328 -4.125,-0.6641 -8.2875,-1.602 -9.25,-2.084 -0.9625,-0.4819 -1.75,-1.9304 -1.75,-3.2187 0,-1.2883 0.68012,-2.9053 1.50977,-3.5938 1.00217,-0.8317 2.76427,-1.0113 5.25,-0.5351 2.05785,0.3942 5.76523,1.1385 8.24023,1.6543 2.475,0.5157 8.43135,1.5865 13.23633,2.3808 4.80497,0.7942 11.39512,2.1346 14.64453,2.9766 3.24942,0.842 7.70698,1.5293 9.90625,1.5293 2.72377,0 4.19201,-0.5026 4.60547,-1.5801 0.33385,-0.87 0.60742,-3.1041 0.60742,-4.9648 0,-2.3212 -0.60641,-3.7097 -1.93359,-4.42 -1.06384,-0.5694 -3.44638,-1.0351 -5.29493,-1.0351 -1.84854,0 -7.61629,-0.8478 -12.8164,-1.8848 -5.20011,-1.037 -12.60508,-2.4241 -16.45508,-3.082 -3.85,-0.658 -9.3625,-1.8471 -12.25,-2.6426 -5.1737,-1.4252 -5.25,-1.5012 -5.25,-5.2949 0,-2.198 0.64164,-4.3827 1.49609,-5.0918 1.18614,-0.9848 3.20831,-0.9954 9.75,-0.033 4.53941,0.6652 11.62891,1.8848 15.75391,2.7109 4.125,0.8261 12.35351,2.2938 18.28516,3.2598 5.93165,0.9659 10.95423,1.4835 11.16015,1.1504 0.20592,-0.3332 0.6752,-2.2188 1.04492,-4.1895 0.36971,-1.9707 0.19617,-5.3548 -0.38671,-7.5195 -0.98776,-3.6682 -1.50949,-4.1026 -7.66407,-6.4043 -3.63183,-1.3582 -7.07016,-3.0349 -7.64258,-3.7246 -0.57241,-0.6897 -1.65873,-1.2539 -2.41406,-1.2539 -0.75533,0 -4.78368,-1.575 -8.95117,-3.5 -4.16749,-1.925 -7.83128,-3.5 -8.14258,-3.5 -0.3113,0 -5.61386,-1.8363 -11.7832,-4.0821 l -11.2168,-4.0839 -2.89453,-6.1504 c -1.59169,-3.3829 -4.45176,-7.8925 -6.35547,-10.0215 -1.90372,-2.129 -4.49122,-4.2636 -5.75,-4.7422 -1.25879,-0.4786 -2.28906,-1.2996 -2.28906,-1.8242 0,-0.5246 2.3839,-1.6453 5.29687,-2.4922 2.91296,-0.8468 6.25188,-2.5676 7.41993,-3.8223 1.16805,-1.2547 2.86385,-4.1458 3.76953,-6.4258 1.34554,-3.3872 1.44571,-4.898 0.54101,-8.2578 -0.61075,-2.2682 -2.6449,-5.6469 -4.53515,-7.5371 -2.45661,-2.4566 -4.68365,-3.6163 -7.86719,-4.0937 -2.44235,-0.3664 -5.71997,-0.3683 -7.2832,-0.02 -1.56323,0.3558 -3.51928,1.1881 -4.34766,1.8496 -0.82838,0.6615 -2.74088,2.6996 -4.25,4.5293 -2.0632,2.5015 -2.74414,4.4086 -2.74414,7.6856 0,2.397 0.40908,5.4005 0.9082,6.6738 0.49912,1.2733 2.71053,4.1705 4.91407,6.4375 l 4.00585,4.1211 -6.8789,0.4922 c -5.84501,0.4183 -7.92878,1.1273 -13.87305,4.7188 -6.48344,3.9174 -7.24365,4.1447 -10.38086,3.1093 -1.99406,-0.6581 -3.94618,-2.2353 -4.75,-3.8398 -0.75049,-1.4979 -2.92914,-4.9243 -4.84179,-7.6133 -2.31531,-3.255 -4.93948,-5.536 -7.85157,-6.8242 -3.59181,-1.5888 -4.16141,-2.1902 -3.18945,-3.3613 0.65098,-0.7844 2.20041,-1.4258 3.44336,-1.4258 1.31143,0 3.97479,-1.7151 6.34766,-4.0879 2.51,-2.51 4.33767,-5.4063 4.73046,-7.5 0.35194,-1.8761 0.34177,-4.9892 -0.0195,-6.918 -0.38383,-2.0459 -2.20074,-5.1206 -4.36133,-7.3808 -3.03345,-3.1732 -4.63948,-4.0029 -8.87695,-4.5782 -3.96448,-0.5382 -6.03527,-0.2921 -8.86523,1.0508 -2.03108,0.9638 -4.99008,3.5449 -6.57617,5.7344 -1.80394,2.4903 -2.88477,5.2276 -2.88477,7.3105 0,1.8314 0.74668,5.1925 1.6582,7.4707 1.14538,2.8625 2.98935,4.989 5.97266,6.8809 2.37417,1.5057 4.03009,3.0246 3.67773,3.3769 -0.35236,0.3524 -2.07491,0.6407 -3.82617,0.6407 -1.75126,0 -4.71245,0.5055 -6.58203,1.123 -1.86957,0.6175 -5.98715,3.0925 -9.15039,5.5 -3.89733,2.9662 -6.73986,4.377 -8.81641,4.377 -1.68542,0 -3.92842,-0.4623 -4.98437,-1.0274 -1.05595,-0.5651 -4.05456,-3.308 -6.66211,-6.0957 -2.60756,-2.7877 -6.76972,-6.1008 -9.25,-7.3613 l -4.50977,-2.291 3.85938,-1.6113 c 2.12211,-0.8866 4.23071,-1.6133 4.68555,-1.6133 0.45484,0 2.06103,-1.6189 3.57031,-3.5977 2.0478,-2.6848 2.84926,-5.0411 3.15625,-9.2851 0.37794,-5.225 0.13858,-6.041 -2.94336,-10.0352 -1.98556,-2.5734 -4.94706,-4.9727 -7.25586,-5.8809 -1.63324,-0.6424 -2.79598,-0.9767 -4.03125,-1.0214 z m 5.63672,79.9394 c 0.5951,-0.01 1.30214,0.039 2.16601,0.1289 2.27121,0.2362 9.07891,1.2069 15.12891,2.1563 6.05,0.9494 13.25,2.3281 16,3.0644 2.75,0.7363 8.825,1.8536 13.5,2.4824 4.675,0.6289 10.075,1.5382 12,2.0215 1.925,0.4834 6.2,1.4142 9.5,2.0684 3.3,0.6542 7.46225,1.6227 9.25,2.1523 2.10779,0.6243 3.45348,1.7671 3.82617,3.252 0.31609,1.2594 0.09,4.7134 -0.50195,7.6738 -0.59194,2.9603 -1.51262,7.5261 -2.04688,10.1465 -0.53425,2.6204 -1.45066,5.6579 -2.03515,6.75 -0.5845,1.0921 -1.45965,1.9844 -1.94532,1.9844 -0.48566,0 -1.48236,0.1774 -2.21484,0.3945 -0.73249,0.217 -2.90703,0.031 -4.83203,-0.4141 -1.925,-0.4453 -6.875,-1.338 -11,-1.9843 -4.125,-0.6464 -8.5335,-1.5857 -9.79688,-2.086 -1.26338,-0.5004 -3.9805,-0.9101 -6.03906,-0.9101 -2.05857,0 -6.20007,-0.6266 -9.20312,-1.3926 -3.00306,-0.7661 -8.83594,-1.92 -12.96094,-2.5645 -4.125,-0.6445 -9.12642,-1.593 -11.11523,-2.1074 -1.98881,-0.5145 -4.91381,-0.9394 -6.5,-0.9394 -1.58619,0 -4.39486,-0.9246 -6.24219,-2.0508 -3.34179,-2.0374 -3.35654,-2.0767 -2.65625,-7.6817 0.38712,-3.0984 1.11166,-6.7045 1.60937,-8.0136 0.49772,-1.3091 0.9043,-4.05 0.9043,-6.0918 0,-2.0418 0.7298,-4.7529 1.62109,-6.0254 1.01702,-1.4522 1.79869,-1.9881 3.58399,-2.0137 z m -113.13086,30.8965 c -1.41558,0.01 -3.14423,0.3775 -3.8418,0.8203 -0.69758,0.4427 -1.76613,3.6248 -2.37305,7.0703 -0.77482,4.3987 -0.79031,6.9492 -0.0547,8.5645 0.9083,1.9935 2.22699,2.4586 9.87304,3.4785 4.85299,0.6473 11.29727,1.8401 14.32227,2.6504 3.025,0.8103 9.775,2.1607 15,3.0019 5.225,0.8412 11.75,1.9279 14.5,2.4161 2.75,0.4881 7.925,1.3586 11.5,1.9335 3.575,0.5749 10.55,1.9123 15.5,2.9727 4.95,1.0604 11.025,2.203 13.5,2.5371 2.475,0.3342 6.525,0.9897 9,1.457 2.475,0.4673 10.25987,1.8218 17.29883,3.0098 7.03895,1.188 13.78895,2.5344 15,2.9941 1.21104,0.4598 6.47617,1.383 11.70117,2.0508 5.225,0.6678 11.525,1.803 14,2.5235 2.475,0.7205 8.1,1.842 12.5,2.4902 4.4,0.6482 11.10639,1.8369 14.90234,2.6426 3.79594,0.8056 9.87094,1.8627 13.5,2.3496 3.62905,0.487 10.87266,1.7702 16.09766,2.8516 5.225,1.0814 12.875,2.4998 17,3.1523 4.125,0.6524 10.2,1.7881 13.5,2.5234 3.3,0.7354 9.15,1.8435 13,2.461 3.85,0.6176 8.575,1.5226 10.5,2.0117 1.925,0.4891 6.2,1.3147 9.5,1.834 3.3,0.5193 7.8,0.8864 10,0.8164 3.71013,-0.1183 4.09007,-0.4045 5.24414,-3.9395 0.68433,-2.0962 1.32182,-5.8478 1.41602,-8.3379 0.11253,-2.975 -0.31403,-4.8305 -1.24414,-5.4101 -0.77852,-0.4852 -3.44102,-1.1625 -5.91602,-1.5039 -2.475,-0.3414 -5.85,-1.0049 -7.5,-1.4746 -1.65,-0.4698 -6.375,-1.5157 -10.5,-2.3243 -4.125,-0.8086 -14.475,-2.6745 -23,-4.1484 -8.525,-1.4738 -19.775,-3.4916 -25,-4.4824 -5.225,-0.9909 -12.875,-2.3129 -17,-2.9375 -4.125,-0.6246 -9.075,-1.539 -11,-2.0332 -1.925,-0.4942 -6.875,-1.415 -11,-2.0449 -4.125,-0.63 -10.2,-1.7474 -13.5,-2.4844 -3.3,-0.737 -9.6,-1.8567 -14,-2.4883 -4.4,-0.6316 -9.8,-1.5413 -12,-2.0215 -2.2,-0.4802 -8.05,-1.5954 -13,-2.4785 -4.95,-0.883 -11.025,-1.9936 -13.5,-2.4668 -2.475,-0.4731 -6.975,-1.3449 -10,-1.9375 -3.025,-0.5926 -11.575,-2.1951 -19,-3.5605 -7.425,-1.3655 -17.325,-3.0179 -22,-3.6739 -4.675,-0.656 -8.92672,-1.5733 -9.44922,-2.0371 -0.5225,-0.4638 -2.32336,-0.8437 -4.00195,-0.8437 -1.67859,0 -7.55187,-0.8992 -13.05078,-1.9981 -5.49891,-1.0989 -11.12305,-2.2125 -12.49805,-2.4746 -1.375,-0.262 -6.74136,-1.1628 -11.92578,-2.0019 -5.18441,-0.839 -10.58441,-1.5198 -12,-1.5098 z m 5.40625,26.2266 c -1.09663,0.05 -1.80161,0.4406 -2.4668,1.2421 -0.76631,0.9233 -1.70332,3.7798 -2.08203,6.3477 -0.37871,2.568 -1.18921,7.9233 -1.80273,11.9004 -0.61351,3.9772 -1.17164,7.5772 -1.24024,8 -0.0683,0.4229 -0.0692,2.0277 -0.006,3.5664 0.0666,1.5724 1.19699,3.7984 2.58203,5.082 1.38249,1.2813 5.00454,2.8267 8.25,3.5215 3.18202,0.6813 7.41354,1.6568 9.40235,2.168 1.98881,0.5113 5.36381,0.9506 7.5,0.9746 2.13619,0.024 6.13281,0.668 8.88281,1.4316 2.75,0.7636 5.60773,1.4201 6.34961,1.4571 0.74188,0.037 2.83637,-0.6403 4.65625,-1.5039 1.81988,-0.8636 3.76559,-2.7761 4.32226,-4.25 0.55667,-1.4739 1.2585,-4.4797 1.56055,-6.6797 0.30205,-2.2 1.2387,-7.375 2.08008,-11.5 0.84137,-4.125 1.52865,-8.7375 1.5293,-10.25 10e-4,-2.3769 -0.3975,-2.75 -2.93946,-2.75 -1.61754,0 -3.18173,-0.3901 -3.47656,-0.8672 -0.29484,-0.477 -2.45846,-1.1194 -4.80859,-1.4277 -2.35013,-0.3082 -8.32344,-1.3114 -13.27344,-2.2286 -4.95,-0.9173 -11.25,-2.0275 -14,-2.4687 -2.75,-0.4412 -6.59636,-1.117 -8.54688,-1.502 -1.01587,-0.2004 -1.81467,-0.2936 -2.47265,-0.2636 z m 220.44726,40.6074 c -1.14366,0.062 -1.97773,0.2615 -2.39062,0.5918 -0.72911,0.5831 -1.5574,2.4086 -1.8418,4.0586 -0.2844,1.65 -1.40847,7.6579 -2.49804,13.3496 -1.46624,7.6594 -1.73484,11.2428 -1.03125,13.791 0.74484,2.6976 1.85829,3.8444 5.14257,5.3008 2.30536,1.0223 6.44141,2.3247 9.19141,2.8926 2.75,0.5679 8.825,1.5646 13.5,2.2148 4.675,0.6502 9.625,1.5449 11,1.9883 1.375,0.4435 3.08597,0.8417 3.80078,0.8847 0.71481,0.043 2.58275,-0.5847 4.15234,-1.3964 1.56958,-0.8116 3.73807,-2.9491 4.81836,-4.75 1.19973,-1.9999 2.43342,-6.9727 3.16993,-12.7754 0.66318,-5.225 1.57788,-10.9322 2.0332,-12.6836 0.6374,-2.4517 0.44911,-3.5175 -0.82227,-4.6348 -0.9082,-0.7981 -3.22734,-1.6843 -5.15234,-1.9687 -1.925,-0.2843 -7.55,-1.2134 -12.5,-2.0645 -4.95,-0.8511 -11.7,-2.0686 -15,-2.7051 -3.3,-0.6366 -8.39324,-1.4727 -11.31836,-1.8593 -1.65651,-0.2189 -3.11025,-0.2959 -4.25391,-0.2344 z m -219.03906,11.1504 c -0.4886,0 -0.89434,0.5625 -0.90234,1.25 -0.008,0.6875 1.45467,4.1374 3.25,7.666 2.54265,4.9973 7.46702,10.745 22.27734,26 10.45742,10.7714 20.63898,21.834 22.625,24.584 1.98602,2.75 4.56443,6.8895 5.73047,9.1992 1.16604,2.3097 2.66508,7.3739 3.33008,11.2519 0.93564,5.4563 0.94295,8.876 0.0312,15.125 -0.88793,6.092 -2.02425,9.4689 -4.625,13.75 -1.89606,3.121 -6.0693,8.2315 -9.27539,11.3575 -3.20608,3.126 -8.30508,7.6345 -11.33008,10.0175 -3.025,2.383 -7.37934,5.6005 -9.67578,7.1504 -2.29644,1.5499 -4.40633,3.4204 -4.68945,4.1582 -0.35154,0.9161 1.20724,1.8849 4.91406,3.0508 2.98549,0.939 5.93858,2.3225 6.5625,3.0742 0.62392,0.7518 1.47895,1.3653 1.90039,1.3653 0.42145,0 1.06074,-1.575 1.42187,-3.5 l 0.65821,-3.5 h 29.88867 c 16.7912,0 31.0033,-0.4225 32.42969,-0.9649 1.85524,-0.7053 3.62753,-3.2673 6.58203,-9.5156 2.22396,-4.7032 4.66901,-10.4569 5.43359,-12.7852 0.76458,-2.3283 1.88164,-6.6186 2.48242,-9.5332 0.60077,-2.9146 1.0918,-9.6371 1.0918,-14.9394 0,-5.3023 -0.50525,-12.3681 -1.12305,-15.7012 -0.6178,-3.3331 -1.49754,-6.9605 -1.95508,-8.0605 -0.45755,-1.1 -1.50622,-3.6918 -2.33007,-5.7598 -0.82386,-2.0679 -3.18311,-6.2993 -5.24414,-9.4043 -2.06104,-3.1051 -6.35652,-8.2221 -9.54493,-11.3711 -3.18841,-3.1491 -12.20758,-10.1678 -20.04296,-15.5957 -7.83538,-5.428 -17.35645,-12.2232 -21.15625,-15.1015 -4.18994,-3.1738 -8.32403,-5.4547 -10.50586,-5.795 -1.97867,-0.3086 -5.17266,-0.9758 -7.09766,-1.4824 -1.925,-0.5065 -9.51261,-2.0611 -16.86133,-3.4551 -7.34685,-1.394 -13.75834,-2.5351 -14.25,-2.5351 z m 230.08399,44.6992 c -1.12974,0.035 -1.58177,0.7515 -1.79883,2.6484 -0.21546,1.8829 1.37446,6.311 4.69336,13.0723 4.36211,8.8865 6.30287,11.5286 14.82617,20.1855 5.39376,5.4784 15.43164,14.1999 22.30664,19.3809 6.875,5.1811 15.72262,12.6894 19.66016,16.6855 5.29837,5.3772 7.55021,8.5082 8.66601,12.0469 0.82923,2.6298 1.78515,6.4431 2.125,8.4746 0.38389,2.2949 1.2683,3.8638 2.33399,4.1407 0.94339,0.2452 6.88984,0.5089 13.21484,0.5859 6.325,0.077 13.075,0.6161 15,1.1973 1.925,0.5812 4.90445,1.6853 6.62109,2.455 1.71665,0.7698 4.64165,3.1689 6.5,5.3301 1.85836,2.1613 3.55516,3.9667 3.76953,4.0137 0.21436,0.046 0.98616,-0.7035 1.7168,-1.666 0.90892,-1.1973 1.33953,-5.1546 1.36133,-12.5313 0.0246,-8.3509 -0.43927,-12.1836 -2.05859,-17 -1.14986,-3.4202 -3.73253,-8.2437 -5.73829,-10.7187 -2.00575,-2.475 -5.22632,-6.0157 -7.1582,-7.8692 -1.93188,-1.8535 -5.98867,-5.0433 -9.01367,-7.0879 -3.025,-2.0446 -8.65,-5.5243 -12.5,-7.7324 -3.85,-2.2081 -9.925,-5.5202 -13.5,-7.3613 -3.575,-1.8411 -10.775,-6.1333 -16,-9.5371 -5.225,-3.4038 -11.9811,-8.8248 -15.01367,-12.0488 -3.03258,-3.2239 -6.20856,-6.9445 -7.0586,-8.2676 -1.24306,-1.9348 -3.29541,-2.7727 -10.48632,-4.2813 -4.91739,-1.0315 -11.41641,-2.3243 -14.44141,-2.8711 -3.025,-0.5468 -6.4,-1.0952 -7.5,-1.2187 -0.19034,-0.021 -0.36595,-0.03 -0.52734,-0.025 z M 92.027972,1463.8821 c -4.12831,-0.066 -4.80473,0.217 -5.30664,2.2168 -0.31635,1.2604 -0.4379,4.9729 -0.26953,8.25 l 0.30664,5.9571 10.5,0.5 c 5.774998,0.275 11.849998,0.5 13.499998,0.5 2.63531,0 3.11397,-0.4559 3.92773,-3.75 0.56848,-2.3013 0.56848,-5.1987 0,-7.5 l -0.92773,-3.75 -8.5,-1.1739 c -4.67501,-0.6461 -10.628448,-1.209 -13.230468,-1.25 z m 621.730468,0.094 -5,0.3301 v 8 8 l 6.13672,0.291 c 4.67516,0.2246 6.57928,0.7849 8,2.3535 1.70994,1.8879 1.8875,4.3805 2.1582,30.0781 l 0.29492,28.0254 3.26758,-0.5312 c 1.79696,-0.2916 5.42922,-1.5456 8.07031,-2.7871 2.70428,-1.2711 5.59781,-3.5668 6.625,-5.2559 1.00319,-1.6496 2.35393,-5.9657 3.00196,-9.5918 0.74304,-4.1595 1.02007,-13.2358 0.74804,-24.5879 -0.33838,-14.1213 -0.80169,-18.8466 -2.15429,-21.957 -0.94794,-2.1799 -2.48566,-4.8039 -3.41602,-5.832 -0.93035,-1.028 -3.12471,-2.469 -4.87695,-3.2012 -1.75223,-0.7321 -6.48756,-1.8563 -10.52149,-2.4981 -4.03393,-0.6419 -9.58398,-1.0179 -12.33398,-0.8359 z m -199.18555,0.7559 v 0 c -7.62201,0 -9.48969,0.2959 -9.98242,1.58 -0.33367,0.8695 0.99145,4.8027 2.94922,8.75 1.95604,3.9437 7.19407,14.7405 11.63867,23.9922 l 8.08008,16.8203 v 11.7618 c 0,6.4692 0.31452,12.0786 0.69922,12.4589 0.38469,0.3847 5.22219,0.5716 10.75,0.4161 l 10.05078,-0.2832 0.28516,-11.459 c 0.1804,-7.2612 -0.15717,-12.5731 -0.92188,-14.5 -0.66374,-1.6725 -2.65295,-6.191 -4.41992,-10.041 -1.76696,-3.85 -5.54888,-11.95 -8.4043,-18 -2.85541,-6.05 -5.90802,-12.575 -6.7832,-14.5 -0.87518,-1.925 -2.26009,-4.2875 -3.07813,-5.25 -1.22088,-1.4365 -3.16665,-1.75 -10.86328,-1.75 z m 48.15235,0 v 0 c -4.72842,0 -9.40591,0.4328 -10.39258,0.9609 -0.98667,0.528 -2.80596,3.3405 -4.04492,6.25 -1.23895,2.9094 -3.10241,7.1771 -4.14063,9.4844 -1.03821,2.3074 -1.88867,5.1443 -1.88867,6.3047 0,1.1604 0.84477,3.9977 1.87695,6.3007 1.03218,2.3073 2.80647,6.3329 3.94336,8.9454 1.13689,2.6125 2.66374,4.75 3.39258,4.75 0.72884,0 3.30361,-4.1625 5.7207,-9.25 2.4171,-5.0875 6.8104,-14.1733 9.76368,-20.1915 2.95328,-6.0181 5.1432,-11.5306 4.86718,-12.25 -0.35948,-0.9367 -2.93964,-1.3085 -9.09765,-1.3085 z m 231.4707,0 c -4.85001,0 -9.09703,0.451 -9.4375,1.0019 -0.34047,0.5509 0.53296,4.9384 1.94141,9.75 1.40846,4.8116 2.95894,10.0981 3.44531,11.7481 0.48637,1.65 1.42761,5.25 2.0918,8 0.66418,2.75 1.65311,5.9397 2.19726,7.0879 0.54415,1.1482 0.8389,3.3982 0.65625,5 -0.28283,2.4804 -0.85115,2.9863 -3.83203,3.4121 -3.17275,0.4532 -3.65622,0.9675 -5.16992,5.5 -0.9184,2.75 -1.7059,6.2198 -1.75,7.7109 l -0.0801,2.7109 8.61523,0.2891 8.61524,0.2891 1.72851,5.5918 c 0.94993,3.0748 2.04925,6.1123 2.44336,6.75 0.46588,0.7538 4.20581,1.1582 10.68946,1.1582 7.40124,0 10.10361,-0.3438 10.48437,-1.336 0.28216,-0.7353 -1.47741,-7.3728 -3.91015,-14.75 -2.43274,-7.3772 -6.43253,-19.714 -8.88868,-27.414 -2.45614,-7.7 -5.04597,-16.025 -5.75586,-18.5 -0.70989,-2.475 -1.77486,-6.075 -2.36523,-8 -0.59037,-1.925 -1.4837,-4.0625 -1.98633,-4.75 -0.6115,-0.8364 -3.83165,-1.25 -9.73242,-1.25 z m -594.12891,0.016 c -5.56214,-0.01 -8.9503,0.405 -9.41211,1.1523 -0.39688,0.6421 -0.89756,17.1044 -1.11328,36.5821 -0.29526,26.6597 -0.0952,35.7734 0.8125,36.8671 0.93413,1.1255 3.37017,1.3883 10.80664,1.168 l 9.59766,-0.2851 0.26367,-36.9317 c 0.20529,-28.8823 -0.0127,-37.1096 -1,-37.7363 -0.69438,-0.4408 -5.17504,-0.8064 -9.95508,-0.8164 z m 58.97852,0.098 c -1.9165,0 -3.46505,0.092 -4.18164,0.2715 -2.49374,0.6259 -2.60547,0.9519 -2.60547,7.5762 0,4.4581 0.44493,7.1989 1.25,7.6973 0.6875,0.4257 3.03833,1.0144 5.22266,1.3086 2.90455,0.3914 4.32507,1.2067 5.29101,3.0351 0.76634,1.4506 1.1573,4.48 0.92969,7.2168 -0.21575,2.5943 -0.96619,5.4068 -1.66602,6.25 -0.72119,0.869 -2.86487,1.5332 -4.94922,1.5332 -2.02266,0 -4.21695,0.5392 -4.87695,1.1992 -0.66538,0.6654 -1.20117,3.8609 -1.20117,7.1719 0,4.153 0.50521,6.523 1.65625,7.7949 0.91024,1.0058 2.37274,1.8245 3.25,1.8125 0.87725,-0.012 5.55596,-0.6176 10.39844,-1.3457 5.51835,-0.8298 9.81055,-2.0672 11.5,-3.3164 1.48252,-1.0963 3.78315,-3.938 5.11133,-6.3164 2.15685,-3.8625 2.41917,-5.5674 2.45507,-15.9258 0.0348,-10.0364 -0.26439,-12.2249 -2.21289,-16.25 -1.72944,-3.5726 -3.26674,-5.1256 -6.63086,-6.707 -2.57852,-1.212 -7.65663,-2.3354 -12.34765,-2.7266 -2.1912,-0.183 -4.47609,-0.2774 -6.39258,-0.2793 z m 208.17578,0 c -1.82449,0.1041 -2.86419,0.3862 -3.42969,0.8555 -1.08146,0.8976 -1.5332,3.1344 -1.5332,7.6113 0,5.247 0.33533,6.5186 1.93555,7.375 1.06384,0.5694 3.44766,1.043 5.29882,1.043 1.85116,0 3.90641,0.5392 4.56641,1.1992 0.66,0.66 1.19922,3.8217 1.19922,7.0254 0,5.3323 -0.21619,5.902 -2.56445,6.7949 -1.4108,0.5363 -4.05777,0.9805 -5.88282,0.9805 -2.59584,0 -3.45017,0.4899 -3.92187,2.25 -0.33164,1.2375 -0.60352,4.05 -0.60352,6.25 0,2.2 0.27188,5.0125 0.60352,6.25 0.33163,1.2375 1.21421,2.25 1.96094,2.25 0.74673,0 2.04586,1.3271 2.88672,2.9531 0.84085,1.6261 2.93392,6.9136 4.65234,11.75 1.71843,4.8365 3.82753,9.3594 4.6875,10.0469 1.01022,0.8076 5.01515,1.25 11.31445,1.25 5.36242,0 9.99131,-0.3925 10.28711,-0.8711 0.2958,-0.4786 -1.70305,-6.412 -4.4414,-13.1836 -2.73834,-6.7716 -4.97094,-12.7916 -4.96094,-13.3789 0.01,-0.5873 1.15983,-2.159 2.55664,-3.4844 1.39681,-1.3253 3.28026,-3.8003 4.18555,-5.5 1.25636,-2.3587 1.64351,-5.8041 1.63281,-14.582 -0.0113,-9.3239 -0.38111,-12.2567 -1.95313,-15.4844 -1.26811,-2.6038 -3.38555,-4.7784 -6.12109,-6.2871 -3.25628,-1.7958 -6.40588,-2.44 -14.21875,-2.916 -3.70399,-0.2257 -6.31223,-0.3014 -8.13672,-0.1973 z m 172.95898,0 c -1.79306,0.1065 -2.8256,0.3902 -3.38867,0.8575 -1.0736,0.891 -1.5332,3.1185 -1.5332,7.4472 0,3.4715 0.52684,6.7007 1.20117,7.375 0.66,0.66 2.71329,1.2051 4.56445,1.2051 1.85116,0 4.23695,0.4658 5.30079,1.0352 1.58183,0.8466 1.93359,2.1252 1.93359,7.0234 0,5.5093 -0.20504,6.0638 -2.56445,6.9609 -1.4108,0.5363 -4.06223,0.9805 -5.89258,0.9805 -2.11213,0 -3.55031,0.5742 -3.93555,1.5781 -0.33385,0.87 -0.5998,4.1325 -0.5918,7.25 0.008,3.1175 0.34592,6.1219 0.75,6.6719 0.40408,0.55 1.60301,1.4791 2.66407,2.0645 1.09803,0.6058 3.09687,4.2679 4.63867,8.5 1.48989,4.0896 3.64316,9.573 4.78516,12.1855 l 2.07617,4.75 9.78515,-0.018 c 5.38205,-0.01 10.38877,-0.3973 11.12696,-0.8652 1.00306,-0.6357 1.07411,-1.3264 0.28125,-2.7344 -0.58349,-1.0362 -2.8746,-6.6356 -5.0918,-12.4414 -2.21719,-5.8059 -4.03125,-11.1405 -4.03125,-11.8555 0,-0.715 1.17944,-2.2273 2.62109,-3.3613 1.44165,-1.134 3.24165,-3.5463 4,-5.3613 0.89839,-2.1501 1.37891,-7.2765 1.37891,-14.7109 0,-7.6476 -0.47032,-12.5211 -1.42773,-14.7813 -0.78563,-1.8546 -2.24813,-4.048 -3.25,-4.873 -1.00187,-0.825 -3.13177,-2.0849 -4.73243,-2.8008 -1.60067,-0.7159 -7.32263,-1.5718 -12.71679,-1.9004 -3.60439,-0.2196 -6.15811,-0.2844 -7.95118,-0.1778 z m -312.77343,0.025 c -1.60111,0.097 -2.35599,0.3852 -2.66602,0.8868 -0.44303,0.7169 -0.85501,3.8154 -0.91601,6.8867 -0.061,3.0712 0.25308,6.3715 0.69726,7.334 0.56435,1.2229 1.96531,1.75 4.65039,1.75 2.35421,0 4.37395,0.6411 5.21485,1.6543 0.80886,0.9746 1.37109,3.9907 1.37109,7.3457 0,3.355 -0.56223,6.3711 -1.37109,7.3457 -0.83818,1.0099 -2.85937,1.6543 -5.19141,1.6543 -2.10019,0 -4.04741,0.3692 -4.32617,0.8203 -0.27876,0.451 -0.72027,2.0035 -0.98242,3.4492 -0.26215,1.4456 -0.16996,4.7889 0.20507,7.4297 l 0.68164,4.8008 4.99219,0.5 c 2.74591,0.275 7.81245,-0.01 11.25781,-0.6309 3.44537,-0.622 7.7562,-2.1525 9.58008,-3.4023 1.82388,-1.2497 4.15592,-4.1159 5.1836,-6.3692 1.4728,-3.2292 1.87367,-6.533 1.89257,-15.5976 0.02,-9.5917 -0.32366,-12.2634 -2.07617,-16.1016 -1.6233,-3.5553 -3.09518,-5.0824 -6.47265,-6.7149 -3.0143,-1.4569 -7.35522,-2.3214 -13.97852,-2.7851 -3.69708,-0.2588 -6.14499,-0.3529 -7.74609,-0.2559 z m 49.85156,0.062 -8.5,0.3008 -0.26172,36.4961 c -0.14451,20.0726 -0.0397,37.076 0.23242,37.7852 0.36971,0.9634 3.09035,1.2169 10.76172,1.0039 l 10.26758,-0.2852 0.26172,-37.2285 0.26367,-37.2285 -2.26367,-0.5664 c -1.24418,-0.3121 -6.08672,-0.4396 -10.76172,-0.2774 z m 471,0 c -4.675,-0.1622 -9.5125,-0.035 -10.75,0.2754 l -2.25,0.5625 v 36.8985 c 0,28.5731 0.28201,37.0119 1.25,37.416 0.6875,0.2873 5.525,0.4416 10.75,0.3379 l 9.5,-0.1895 v -37.5 -37.5 z m -705.84961,0.024 c -6.03498,-0.1864 -9.84689,0.1235 -10.75,0.873 -1.1519,0.956 -1.40039,7.5639 -1.40039,37.3731 0,19.916 0.31452,36.5254 0.69922,36.9101 0.38469,0.3847 5.22219,0.5715 10.75,0.416 l 10.05078,-0.2832 v -37.5 -37.5 z m 94.04492,0 -9.69531,0.2851 -0.26172,36.4961 c -0.14451,20.0726 -0.046,37.0601 0.21875,37.75 0.3391,0.8837 3.28011,1.2539 9.95313,1.2539 6.49592,0 9.71599,-0.3928 10.25,-1.25 0.42829,-0.6875 0.88894,-16.9474 1.02343,-36.1328 0.1559,-22.2411 -0.1241,-35.5718 -0.77343,-36.7851 -0.91114,-1.7024 -2.04034,-1.8726 -10.71485,-1.6172 z m 70.65625,0 -9.35156,0.289 -0.26172,36.4961 c -0.14451,20.0726 -0.046,37.0601 0.21875,37.75 0.33636,0.8766 3.17586,1.2539 9.42969,1.2539 4.92228,0 9.66127,-0.2715 10.53125,-0.6054 1.40216,-0.538 1.58203,-4.7274 1.58203,-36.8789 0,-29.8603 -0.24646,-36.4757 -1.39844,-37.4317 -0.90311,-0.7495 -4.71502,-1.0594 -10.75,-0.873 z m 139,0 -9.35156,0.289 -0.26172,36.4961 c -0.14451,20.0726 -0.046,37.0601 0.21875,37.75 0.33922,0.884 3.28443,1.2539 9.97656,1.2539 8.4107,0 9.61709,-0.2236 10.54688,-1.9609 0.6804,-1.2714 1.0203,-14.2671 0.9668,-36.9336 -0.0657,-27.8192 -0.35505,-35.1992 -1.41407,-36.0781 -0.8228,-0.6829 -4.90267,-0.9949 -10.68164,-0.8164 z m -367.777348,0.01 c -0.90202,0 -2.00438,0.1001 -3.08789,0.2832 -2.167,0.3661 -5.40533,1.6518 -7.19726,2.8594 -1.79194,1.2076 -4.271,3.9842 -5.50781,6.168 -1.90056,3.3556 -2.24977,5.4739 -2.26367,13.6855 -0.0116,6.8303 0.45263,10.7035 1.5664,13.0391 0.87138,1.8273 3.00888,4.2697 4.75,5.4277 1.74112,1.158 4.74102,2.5749 6.66602,3.1485 1.925,0.5737 7.325,1.5774 12,2.2324 4.67499,0.655 9.2875,1.8787 10.25,2.7187 1.48969,1.3001 1.75,3.3644 1.75,13.8731 v 12.3437 h 3.289058 c 1.80846,0 5.29596,-1.0125 7.75,-2.25 3.15005,-1.5885 5.18593,-3.573 6.92578,-6.75 2.16786,-3.9585 2.4687,-5.7635 2.5,-15 0.0267,-7.8903 -0.38799,-11.3829 -1.66797,-14.0527 -0.93683,-1.954 -2.59033,-4.3556 -3.67578,-5.3379 -1.08546,-0.9823 -3.69416,-2.1904 -5.79687,-2.6836 -2.10271,-0.4931 -7.854308,-1.3669 -12.781258,-1.9433 -5.60833,-0.656 -9.62816,-1.6548 -10.75,-2.67 -1.52089,-1.3764 -1.79296,-3.3291 -1.79296,-12.9082 0,-6.7116 -0.4206,-11.5448 -1.03711,-11.9258 -0.28509,-0.1762 -0.98665,-0.2624 -1.88868,-0.2578 z m 540.425788,0.01 v 0 l -9,0.2539 -0.26172,36.4921 c -0.14451,20.0726 -0.04,37.0773 0.23242,37.7872 0.36852,0.9604 2.98845,1.217 10.23633,1.0039 l 9.74219,-0.2871 0.66406,-4 c 0.36531,-2.2 0.60159,-18.7526 0.52539,-36.7852 -0.11814,-27.942 -0.36031,-32.9309 -1.63867,-33.7559 -0.825,-0.5325 -5.55,-0.8529 -10.5,-0.7129 z m 80.9707,0.2168 v 0 c -0.86093,0 -1.83972,0.092 -2.73047,0.2578 -1.78148,0.3324 -4.91215,1.5195 -6.95703,2.6386 -2.43489,1.3324 -4.5055,3.6173 -6,6.6192 -2.18423,4.3875 -2.2821,5.5908 -2.2539,28.084 0.0251,19.9651 0.28498,24.0508 1.72851,27.166 0.93451,2.0166 3.03965,4.6226 4.67774,5.789 1.6381,1.1664 4.68531,2.7461 6.77148,3.5118 2.30368,0.8455 8.01403,1.4198 14.54297,1.4628 l 10.75,0.064 v -8 -8 h -4.93359 c -2.7142,0 -6.0356,-0.417 -7.37891,-0.9277 -1.41567,-0.5382 -2.91369,-2.2817 -3.56445,-4.1485 -0.71559,-2.0527 -1.12305,-12.3752 -1.12305,-28.4648 0,-21.5977 -0.21707,-25.3282 -1.50977,-25.8242 -0.4155,-0.1597 -1.15859,-0.2369 -2.01953,-0.2325 z m -303.9707,0.1075 -0.29883,6.9023 c -0.16452,3.7954 -0.0606,7.5207 0.23047,8.2793 0.41964,1.0892 3.17382,1.3217 13.29883,1.0996 l 12.76953,-0.2812 v -8 -8 h -13 z m 467,0 -0.5,6.9297 c -0.35864,4.97 -0.12556,7.3024 0.82227,8.25 0.72678,0.7265 2.75178,1.3259 4.5,1.3359 1.74821,0.01 3.67412,0.3459 4.27929,0.75 0.60516,0.4041 1.61766,1.7166 2.25,2.918 0.72245,1.3725 1.14844,7.9289 1.14844,17.6406 0,13.2401 -0.25079,15.7594 -1.75,17.5859 -1.04604,1.2745 -3.56019,2.4353 -6.25,2.8848 l -4.5,0.7519 -0.5625,6.9766 c -0.33821,4.1971 -0.14692,7.527 0.48047,8.3574 0.80261,1.0624 2.77555,1.2384 8.5625,0.7617 4.13562,-0.3407 9.31953,-1.1872 11.51953,-1.8808 2.2,-0.6935 5.45576,-2.1409 7.23437,-3.2168 1.77861,-1.0758 3.88037,-3.3258 4.66993,-5 0.78956,-1.6741 1.92129,-6.5649 2.51562,-10.8672 0.59433,-4.3023 1.07135,-12.4023 1.06055,-18 -0.0108,-5.5977 -0.63418,-13.6701 -1.38672,-17.9395 -0.75254,-4.2694 -1.98133,-8.5444 -2.73047,-9.5 -0.74914,-0.9556 -2.03828,-2.3207 -2.86328,-3.0332 -0.825,-0.7125 -3.38249,-2.1456 -5.68359,-3.1855 -2.89113,-1.3064 -7.06226,-1.9882 -13.5,-2.2051 z m -85.17578,0.8164 v 0.01 c -0.70577,0.041 -2.85593,5.3059 -5.26758,12.9258 -2.31336,7.3093 -4.61524,14.639 -5.11523,16.289 -0.49998,1.65 -2.44357,7.725 -4.31836,13.5 -1.8748,5.775 -4.80915,14.9264 -6.52149,20.336 -1.71234,5.4096 -2.84975,10.2615 -2.52734,10.7832 0.32614,0.5277 5.03289,0.8241 10.60937,0.666 l 10.02344,-0.2852 1.25195,-4 c 0.68889,-2.2 2.43698,-8.275 3.88477,-13.5 1.4478,-5.225 3.80417,-13.6938 5.23633,-18.8203 2.52576,-9.0413 2.55607,-9.4765 1,-14.5 -0.88232,-2.8485 -2.11068,-6.9797 -2.72852,-9.1797 -0.61784,-2.2 -1.85272,-6.2139 -2.74609,-8.9199 -0.89336,-2.706 -2.12449,-5.0858 -2.73438,-5.2891 -0.0153,-0.01 -0.0299,-0.014 -0.0469,-0.014 z m -178.2207,24.6797 c -0.49378,0 -3.98128,1.8795 -7.75,4.1757 -3.76871,2.2962 -12.02852,6.8218 -18.35352,10.0567 -6.325,3.2349 -12.0141,6.4178 -12.64258,7.0742 -0.62847,0.6564 -1.44531,2.2059 -1.8164,3.4434 l -0.67579,2.25 h 21.06836 21.06641 v -13.5 c 0,-7.425 -0.40269,-13.5 -0.89648,-13.5 z m -203.60352,3.5039 -0.29883,6.8965 c -0.16452,3.7954 -0.066,7.5079 0.21875,8.25 v 0.01 c 0.38858,1.0126 3.11213,1.3477 10.91797,1.3477 h 10.40039 l 0.49024,-3.25 c 0.2699,-1.7875 0.21629,-5.5 -0.11915,-8.25 l -0.60937,-5 h -10.5 z m 428.85156,1.8125 v 0 h -0.01 c -0.1394,0.015 -0.23322,0.3786 -0.26172,1.0703 -0.0434,1.0541 0.1931,1.6448 0.52539,1.3125 0.33225,-0.3323 0.36735,-1.1941 0.0781,-1.916 -0.12562,-0.314 -0.23835,-0.4687 -0.33203,-0.4687 z m -655.85156,26.6875 c -5.71008,0 -10.64899,0.4348 -10.97656,0.9648 -0.32757,0.53 -0.68273,4.0175 -0.78907,7.75 -0.10634,3.7325 0.1618,7.3477 0.59571,8.0352 0.5485,0.8691 3.95177,1.25 11.16992,1.25 5.71008,0 10.64509,-0.4248 10.9668,-0.9453 0.32171,-0.5206 0.65077,-4.0404 0.73047,-7.8204 0.0797,-3.78 -0.18455,-7.4033 -0.58594,-8.0527 -0.48523,-0.7852 -4.20865,-1.1816 -11.11133,-1.1816 z m 253.5,0.9433 -13.25,0.2793 -13.25,0.2774 -0.29883,6.9004 c -0.16452,3.7954 -0.066,7.5079 0.21875,8.25 0.39785,1.0368 3.53513,1.3476 13.54883,1.3476 h 13.03125 v -8.5273 z m -358.749998,0.5196 c -0.83515,0.3168 -1.25,2.7888 -1.25,7.4472 0,4.497 0.44376,7.2492 1.25,7.75 0.6875,0.4272 6.2,1.0554 12.25,1.3965 6.05,0.3411 11.47621,0.6923 12.05859,0.7813 0.58238,0.089 1.84269,-0.4108 2.80078,-1.1114 1.42483,-1.0418 1.68748,-2.5438 1.44141,-8.25 l -0.30078,-6.9765 -13.5,-0.7539 c -7.425,-0.4155 -14.0625,-0.5439 -14.75,-0.2832 z m 647.287108,100.0546 c 0.0815,0.1137 0.16302,0.2281 0.24414,0.3438 -0.0263,-0.1146 -0.0513,-0.2299 -0.0762,-0.3438 -0.0557,10e-5 -0.11243,0 -0.16797,0 z" />
                  </g>
                </g>
              </g>
            </g>
          </g>
        </g>
      </g>
    </g>
  </g>
</svg>